inDegrees=no
num_controls=7
num_derivatives=13
num_iterations=136
num_multipliers=7
num_parameters=0
num_slacks=7
num_states=26
objective=0.496876
objective_accelerations=0.042989
objective_balance=0.003654
objective_effort=0.039581
objective_height=0.405144
objective_ligament=0.005509
solver_duration=1585.894408
status=Solve_Succeeded
success=true
DataType=double
version=3
OpenSimVersion=4.5
endheader
time	/jointset/ground_pelvis/pelvis_tilt/value	/jointset/ground_pelvis/pelvis_tx/value	/jointset/ground_pelvis/pelvis_ty/value	/jointset/hip_r/hip_flexion_r/value	/jointset/hip_r/hip_adduction_r/value	/jointset/hip_r/hip_rotation_r/value	/jointset/back/lumbar_extension/value	/jointset/patellofemoral_r/patellar_flexion_r/value	/jointset/knee_r/knee_flexion_r/value	/jointset/knee_r/knee_adduction_r/value	/jointset/knee_r/knee_rotation_r/value	/jointset/ankle_r/ankle_angle_r/value	/jointset/subtalar_r/subtalar_angle_r/value	/jointset/ground_pelvis/pelvis_tilt/speed	/jointset/ground_pelvis/pelvis_tx/speed	/jointset/ground_pelvis/pelvis_ty/speed	/jointset/hip_r/hip_flexion_r/speed	/jointset/hip_r/hip_adduction_r/speed	/jointset/hip_r/hip_rotation_r/speed	/jointset/back/lumbar_extension/speed	/jointset/patellofemoral_r/patellar_flexion_r/speed	/jointset/knee_r/knee_flexion_r/speed	/jointset/knee_r/knee_adduction_r/speed	/jointset/knee_r/knee_rotation_r/speed	/jointset/ankle_r/ankle_angle_r/speed	/jointset/subtalar_r/subtalar_angle_r/speed	/forceset/tau_hip_flexion_r	/forceset/tau_hip_adduction_r	/forceset/tau_hip_rotation_r	/forceset/tau_knee_flexion_r	/forceset/tau_ankle_angle_r	/forceset/tau_subtalar_angle_r	/forceset/tau_lumbar_extension	lambda_cid13_p0	lambda_cid14_p0	lambda_cid14_p1	lambda_cid14_p2	lambda_cid14_p3	lambda_cid14_p4	lambda_cid14_p5	/jointset/ground_pelvis/pelvis_tilt/accel	/jointset/ground_pelvis/pelvis_tx/accel	/jointset/ground_pelvis/pelvis_ty/accel	/jointset/hip_r/hip_flexion_r/accel	/jointset/hip_r/hip_adduction_r/accel	/jointset/hip_r/hip_rotation_r/accel	/jointset/back/lumbar_extension/accel	/jointset/patellofemoral_r/patellar_flexion_r/accel	/jointset/knee_r/knee_flexion_r/accel	/jointset/knee_r/knee_adduction_r/accel	/jointset/knee_r/knee_rotation_r/accel	/jointset/ankle_r/ankle_angle_r/accel	/jointset/subtalar_r/subtalar_angle_r/accel	gamma_cid13_p0	gamma_cid14_p0	gamma_cid14_p1	gamma_cid14_p2	gamma_cid14_p3	gamma_cid14_p4	gamma_cid14_p5
1	-0.2559461835071414	0.007782913607281667	0.6930580562827556	1.331263971695959	-0.2299411632181471	-0.09025320121273998	-0.4363260968719501	1.308727557092889	1.308727557092763	-0.0986799497632523	0.1743805307405791	0.4363133783795243	0.1151631422787837	-0.001936999958396222	0.003738278754297445	0.01452431989283533	-0.03771362337164896	0.001577800415020209	-0.005253135655657354	0.00121971015528735	-0.04716851780241471	-0.04716851780241365	0.005700822228151686	-7.142748991342951e-05	-0.0089341992958857	-0.0008242152825937923	-0.2503299035293948	0.02068568791142698	0.01253442315036198	-0.491682208035396	0.000554912589221021	0.006053899872388593	0.2796100099536371	-0.04570590971037096	-48.63578271819441	-7.245854082180275	3.167791207364026	16.50530049721029	-794.2116035180964	61.24777205894187	1.172068735173796	0.08920566202482832	1.631725170298879	-5.014731846712919	0.144253433433198	-0.2540639228996064	0.1349748548106496	-5.045051599679986	-5.045051599679847	0.9671277434623688	0.006782383219514573	-1.405298305106523	-0.3207699391712968	1.97519526740318e-09	-3.23058615842907e-10	1.661799842778924e-08	1.977123060913983e-08	5.719202176066335e-09	-5.204939179088441e-09	2.265219280699398e-08
1.01	-0.255907944645675	0.007824840632238409	0.6932847372858303	1.330637167913408	-0.2299182484110789	-0.0903170475497478	-0.4363049988324033	1.308003827896199	1.308003827896062	-0.09857318946708479	0.1743797922804851	0.4361538052424798	0.1151387150620037	0.009549887979090533	0.004657977430452544	0.03081045055715411	-0.0876300427983361	0.003001881057480174	-0.00751939078923526	0.003141540827109807	-0.09759153042335252	-0.0975915304233614	0.01565686939862253	-7.255569786132016e-05	-0.02297827196051564	-0.004065336391447291	-0.2513975958531178	0.02089307491880694	0.01252107834929757	-0.4907118630032004	-0.0006714678532497496	0.006157466160949166	0.2806121944416674	-0.04570825332274711	-49.04434963943155	-7.2579661382539	3.153221312141882	16.65833107767681	-794.6338340700938	61.16383841720486	1.131767769838581	0.09497993097223821	1.626840708270676	-4.977532040051788	0.1410000549289001	-0.2133927288213164	0.2420336343409237	-5.043058198352321	-5.043058198353925	1.010689894368525	-0.002993568235206683	-1.403639342229258	-0.3263889617165397	3.840599974632007e-09	3.726099493898614e-09	3.583463981160891e-08	4.031870093442042e-08	1.450858986705167e-09	-8.870421601087537e-09	5.075670226300849e-08
1.02	-0.2557558831154729	0.007876290236069004	0.6936742363343025	1.329511712926709	-0.2298811898625309	-0.09040365372213847	-0.4362604331939445	1.306775442152289	1.306775442152142	-0.09836669936110737	0.1743791559092245	0.4358538558597713	0.1150817554811402	0.0208275337886753	0.005642794529068171	0.04708792897235357	-0.1374438642012308	0.004406548711001382	-0.009805102732191493	0.005913229937845531	-0.1480998272463564	-0.148099827246377	0.02564678419025703	-5.100972314046054e-05	-0.03700944842866671	-0.007330688099267037	-0.2524652881768372	0.02110046192618525	0.01250773354826577	-0.4897415179710028	-0.001897848295721771	0.006261032449505727	0.2816143789297014	-0.04571633174099587	-49.46340426515985	-7.267895377400528	3.133712272177319	16.83163939610028	-795.2238859340781	61.10598408185815	1.130220309593402	0.1022293465169347	1.629994720475015	-4.994212241954426	0.1403708356454466	-0.2579552847752701	0.3049465425933047	-5.062108440093194	-5.062108440093427	0.9739012676951014	0.01131721975326283	-1.402719065810744	-0.3256160589645447	5.476554020214862e-09	7.454392382885298e-09	5.330256241425386e-08	6.103947079823196e-08	-2.131006774759941e-09	-1.107928425192577e-08	7.581514700924383e-08
1.03	-0.2554923748131899	0.007937923141409538	0.694226349385103	1.327889102253848	-0.2298301875717028	-0.0905132635946754	-0.4361836713750809	1.305041691799563	1.305041691798704	-0.09806022360403832	0.1743788327150568	0.4354136201639712	0.1149920051358895	0.03180781822186184	0.00669562953498605	0.06332114019179112	-0.187010948392029	0.005789754870288531	-0.0121210364224447	0.009607769169438184	-0.1986497503485314	-0.198649750348529	0.0356500737069039	-1.217080736825804e-05	-0.05103975442904383	-0.01062578921384461	-0.2530599909662444	0.02122406896851475	0.01252962394630987	-0.488645226956378	-0.002625500310278409	0.006304572291022176	0.2822547503968618	-0.04572579661014457	-49.69358218985435	-7.273512931623908	3.116588513580254	16.86379478310737	-795.3110747280119	61.02072460590958	1.071988949562172	0.1085858641848375	1.617950505330864	-4.927855709149241	0.1366856314920015	-0.2190318597929166	0.4270029136416551	-5.051361734647966	-5.051361734644363	1.01380217923353	0.0004072739972169604	-1.403497346296291	-0.3323974630167472	7.110166732515614e-09	1.117941113696632e-08	7.075264094770313e-08	8.176200902468155e-08	-5.705867664511819e-09	-1.327328343571132e-08	1.008425094625222e-07
1.04	-0.2551210523786991	0.0080104394541204	0.6949403877846284	1.325772840898773	-0.229765475194198	-0.09064615669384304	-0.4360649051038624	1.302802456717941	1.302802456716374	-0.09765366307468729	0.1743789459193483	0.4348330192123384	0.1148691157144306	0.04239036023028307	0.00781947600313394	0.07947299871732232	-0.2361740006430972	0.007148566046442596	-0.01446174805840172	0.01431412040900527	-0.2491967730254396	-0.2491967730254131	0.04566373864691316	3.62699687239416e-05	-0.065082499595225	-0.01395850334091721	-0.2536546937556741	0.02134767601084273	0.01255151434438762	-0.487548935941753	-0.003353152324833505	0.00634811213253594	0.2828951218640008	-0.04575109757482027	-49.93432987579273	-7.276945708148983	3.094506657240517	16.915691582254	-795.5679762266785	60.96144962154525	1.050671824640345	0.1164316389629379	1.613724181693748	-4.913405854008416	0.1354918390188299	-0.2629108739160294	0.5073089441881923	-5.061528355039846	-5.061528355039843	0.9759763523675814	0.01323759181725964	-1.405206898971549	-0.3331386614635457	8.606984362338821e-09	1.371192084384005e-08	8.368027609298598e-08	9.884290164734519e-08	-7.675398207920609e-09	-1.583045983189534e-08	1.192541881067855e-07
1.05	-0.2546454579207134	0.008094580679818246	0.6958155199093271	1.323166586638252	-0.2296873229468865	-0.09080269389486627	-0.4358945354489187	1.300057855754746	1.300057855754776	-0.09714701329666731	0.1743796268339763	0.4341119676786399	0.1147126941001367	0.05270251194715327	0.009023792024948197	0.09553760181000384	-0.2850441245196089	0.008475655357698788	-0.01685094035026331	0.01988084765877771	-0.2997130511391722	-0.2997130511391602	0.05566681609031868	0.0001003968075131617	-0.07912589064749925	-0.01733316079406028	-0.2539298568964424	0.02139535284828954	0.01259738949138599	-0.4861574512635998	-0.003863442585446395	0.006378838209727201	0.2832539582976272	-0.04712827703004725	-50.07614622464875	-7.264282058916573	3.064902381475745	16.89138252139841	-795.3573289733164	60.88873828231879	1.017587560518883	0.1246830787309248	1.600451005452728	-4.868903253337937	0.1304021052944756	-0.2277029638532209	0.5995101772179848	-5.045124303379374	-5.045124303381511	1.012567908707382	0.003102674748711435	-1.403619579711295	-0.3407014739775707	1.00995271458346e-08	1.620716464298856e-08	9.646658488238864e-08	1.158099928448905e-07	-9.594762178006189e-09	-1.839898551596681e-08	1.37459126632017e-07
1.06	-0.254067521802497	0.008191215364722318	0.6968508225914321	1.320072613619197	-0.2295960828808392	-0.09098327893021423	-0.4356648674091071	1.296808402657647	1.296808402659272	-0.0965403138505377	0.1743809695059604	0.4332505393601475	0.1145223114739638	0.06285869227636484	0.01031816784437921	0.1115071101985704	-0.3337177523507357	0.00976612979357375	-0.01927131492340558	0.02617379738239683	-0.3501671998064816	-0.3501671998064829	0.06567367226893812	0.0001686214398600326	-0.09315785655401095	-0.02075070571671835	-0.2542050200371912	0.02144302968573775	0.01264326463841475	-0.4847659665854441	-0.004373732846061408	0.006409564286919358	0.2836127947312722	-0.05165822505507504	-50.22836967128035	-7.249168834955883	3.030027892719254	16.88528596073223	-795.3150031528394	60.8419063024194	1.019477547108622	0.1344435984862892	1.594705240870765	-4.874106644931455	0.1281688639425848	-0.2691473301721629	0.6525534389575305	-5.049102465755196	-5.049102465754963	0.9767320994103688	0.01405715052878633	-1.40292186981903	-0.3417161553665426	1.113803429241979e-08	1.814263553850295e-08	1.045751776783753e-07	1.284386597135902e-07	-1.116817344046143e-08	-2.04088053849089e-08	1.490238817401414e-07
